{
  "asset": {
    "generator": "glTF-Transform v4.4.2",
    "version": "2.0",
    "extras": {
      "author": "Mikhail Antonov (https://sketchfab.com/xeofox)",
      "license": "CC-BY-4.0 (http://creativecommons.org/licenses/by/4.0/)",
      "source": "https://sketchfab.com/3d-models/cassette-c399cad3a0c64623b30be0c5ed206336",
      "title": "Cassette"
    }
  },
  "accessors": [
    {
      "type": "VEC3",
      "componentType": 5126,
      "count": 13575,
      "max": [
        67.92098999023438,
        39.460792541503906,
        2.0400161743164062
      ],
      "min": [
        -67.92098999023438,
        -39.502872467041016,
        -8.017004013061523
      ],
      "bufferView": 0,
      "byteOffset": 0
    },
    {
      "type": "VEC3",
      "componentType": 5126,
      "count": 13575,
      "bufferView": 0,
      "byteOffset": 12
    },
    {
      "type": "VEC4",
      "componentType": 5126,
      "count": 13575,
      "bufferView": 0,
      "byteOffset": 24
    },
    {
      "type": "VEC2",
      "componentType": 5126,
      "count": 13575,
      "bufferView": 0,
      "byteOffset": 40
    },
    {
      "type": "VEC2",
      "componentType": 5126,
      "count": 13575,
      "bufferView": 0,
      "byteOffset": 48
    },
    {
      "type": "VEC2",
      "componentType": 5126,
      "count": 13575,
      "bufferView": 0,
      "byteOffset": 56
    },
    {
      "type": "VEC2",
      "componentType": 5126,
      "count": 13575,
      "bufferView": 0,
      "byteOffset": 64
    },
    {
      "type": "SCALAR",
      "componentType": 5125,
      "count": 30609,
      "bufferView": 1,
      "byteOffset": 0
    }
  ],
  "bufferViews": [
    {
      "buffer": 0,
      "byteOffset": 0,
      "byteLength": 977400,
      "byteStride": 72,
      "target": 34962
    },
    {
      "buffer": 0,
      "byteOffset": 977400,
      "byteLength": 122436,
      "target": 34963
    }
  ],
  "samplers": [
    {
      "magFilter": 9729,
      "minFilter": 9987,
      "wrapS": 10497,
      "wrapT": 10497
    },
    {
      "magFilter": 9729,
      "minFilter": 9729,
      "wrapS": 10497,
      "wrapT": 10497
    }
  ],
  "textures": [
    {
      "source": 0,
      "sampler": 0
    },
    {
      "source": 1,
      "sampler": 0
    },
    {
      "source": 3,
      "sampler": 1
    },
    {
      "source": 2,
      "sampler": 1
    }
  ],
  "images": [
    {
      "mimeType": "image/png",
      "uri": "textures/kasse_diffuse.png"
    },
    {
      "mimeType": "image/png",
      "uri": "textures/kasse_normal.png"
    },
    {
      "mimeType": "image/png",
      "uri": "specular_1.png"
    },
    {
      "mimeType": "image/png",
      "uri": "metallicRoughness_1.png"
    }
  ],
  "buffers": [
    {
      "uri": "scene.bin",
      "byteLength": 1099836
    }
  ],
  "materials": [
    {
      "name": "kasse",
      "alphaMode": "MASK",
      "alphaCutoff": 0,
      "doubleSided": true,
      "pbrMetallicRoughness": {
        "metallicFactor": 0,
        "baseColorTexture": {
          "index": 0
        },
        "metallicRoughnessTexture": {
          "index": 2
        }
      },
      "normalTexture": {
        "index": 1,
        "scale": 0.28441272259935535
      },
      "extensions": {
        "KHR_materials_ior": {
          "ior": 1000
        },
        "KHR_materials_specular": {
          "specularColorFactor": [
            0.27185124989229514,
            0.27185124989229514,
            0.27185124989229514
          ],
          "specularTexture": {
            "index": 3
          },
          "specularColorTexture": {
            "index": 3
          }
        }
      }
    }
  ],
  "meshes": [
    {
      "name": "cas2_kasse_0",
      "primitives": [
        {
          "attributes": {
            "NORMAL": 1,
            "POSITION": 0,
            "TANGENT": 2,
            "TEXCOORD_0": 3,
            "TEXCOORD_1": 4,
            "TEXCOORD_2": 5,
            "TEXCOORD_3": 6
          },
          "mode": 4,
          "material": 0,
          "indices": 7
        }
      ]
    }
  ],
  "nodes": [
    {
      "name": "Sketchfab_model",
      "rotation": [
        -0.7071067811865475,
        0,
        0,
        0.7071067811865476
      ],
      "children": [
        1
      ]
    },
    {
      "name": "111.fbx",
      "rotation": [
        0.7071067811865475,
        0,
        0,
        0.7071067811865476
      ],
      "scale": [
        0.02539999969303608,
        0.02539999969303608,
        0.02539999969303608
      ],
      "children": [
        2
      ]
    },
    {
      "name": "RootNode",
      "children": [
        3
      ]
    },
    {
      "name": "cas2",
      "translation": [
        -9.971725463867188,
        2.3404040336608887,
        4.215950012207031
      ],
      "scale": [
        0.8782989978790283,
        0.9366610050201416,
        1.1807889938354492
      ],
      "children": [
        4
      ]
    },
    {
      "name": "cas2_kasse_0",
      "mesh": 0
    }
  ],
  "scenes": [
    {
      "name": "Sketchfab_Scene",
      "nodes": [
        0
      ]
    }
  ],
  "scene": 0,
  "extensionsUsed": [
    "KHR_materials_ior",
    "KHR_materials_specular"
  ]
}